<svg xmlns="http://www.w3.org/2000/svg" width="9.344" height="9.38" viewBox="0 0 9.344 9.38">
  <defs>
    <style>
      .cls-1 {
        fill: #f9bb06;
        fill-rule: evenodd;
      }
    </style>
  </defs>
  <path id="icn-tag.svg" class="cls-1" d="M513.608,1176.23l2.829-2.83a1,1,0,0,1,1.414,0l4.242,4.25a0.994,0.994,0,0,1,0,1.41l-2.828,2.83a1,1,0,0,1-1.414,0l-4.243-4.24A1.008,1.008,0,0,1,513.608,1176.23Zm0.414-3.41h2a1,1,0,0,1,1,1v2a1,1,0,0,1-1,1h-2a1,1,0,0,1-1-1v-2A1,1,0,0,1,514.022,1172.82Zm1,2a1,1,0,1,1,0,1.41A1,1,0,0,1,515.022,1174.82Z" transform="translate(-513.031 -1172.81)"/>
</svg>
